HIERARCHY
ROOT Hips
{
	OFFSET 0.000000 0.000000 0.000000 
	CHANNELS 6 Xposition Yposition Zposition Zrotation Yrotation Xrotation
	JOINT LeftUpLeg
	{
		OFFSET 1.363060 -1.794630 0.839290 
		CHANNELS 3 Zrotation Yrotation Xrotation
		JOINT LeftLeg
		{
			OFFSET 2.448110 -6.726130 0.000000 
			CHANNELS 3 Zrotation Yrotation Xrotation
			JOINT LeftFoot
			{
				OFFSET 2.562200 -7.039590 0.000000 
				CHANNELS 3 Zrotation Yrotation Xrotation
				JOINT LeftToeBase
				{
					OFFSET 0.157640 -0.433110 2.322550 
					CHANNELS 3 Zrotation Yrotation Xrotation
					End Site
					{
						OFFSET 0.000000 0.000000 0.000000 
					}
				}
			}
		}
	}
	JOINT RightUpLeg
	{
		OFFSET -1.305520 -1.794630 0.839290 
		CHANNELS 3 Zrotation Yrotation Xrotation
		JOINT RightLeg
		{
			OFFSET -2.542530 -6.985550 0.000000 
			CHANNELS 3 Zrotation Yrotation Xrotation
			JOINT RightFoot
			{
				OFFSET -2.568260 -7.056230 0.000000 
				CHANNELS 3 Zrotation Yrotation Xrotation
				JOINT RightToeBase
				{
					OFFSET -0.164730 -0.452590 2.363150 
					CHANNELS 3 Zrotation Yrotation Xrotation
					End Site
					{
						OFFSET 0.000000 0.000000 0.000000 
					}
				}
			}
		}
	}
	JOINT Spine
	{
		OFFSET 0.028270 2.035590 -0.193380 
		CHANNELS 3 Zrotation Yrotation Xrotation
		JOINT Spine1
		{
			OFFSET 0.056720 2.048850 -0.042750 
			CHANNELS 3 Zrotation Yrotation Xrotation
			JOINT Neck1
			{
				OFFSET -0.054170 1.746240 0.172020 
				CHANNELS 3 Zrotation Yrotation Xrotation
				JOINT Head
				{
					OFFSET 0.104070 1.761360 -0.123970 
					CHANNELS 3 Zrotation Yrotation Xrotation
					End Site
					{
						OFFSET 0.000000 0.000000 0.000000 
					}
				}
			}
			JOINT LeftArm
			{
				OFFSET 3.362410 1.200890 -0.311210 
				CHANNELS 3 Zrotation Yrotation Xrotation
				JOINT LeftForeArm
				{
					OFFSET 4.983000 -0.000000 -0.000000 
					CHANNELS 3 Zrotation Yrotation Xrotation
					JOINT LeftHand
					{
						OFFSET 3.483560 -0.000000 -0.000000 
						CHANNELS 3 Zrotation Yrotation Xrotation
						JOINT LeftHandIndex1
						{
							OFFSET 0.715260 -0.000000 -0.000000 
							CHANNELS 3 Zrotation Yrotation Xrotation
							End Site
							{
								OFFSET 0.000000 0.000000 0.000000 
							}
						}
					}
				}
			}
			JOINT RightArm
			{
				OFFSET -3.136600 1.374050 -0.404650 
				CHANNELS 3 Zrotation Yrotation Xrotation
				JOINT RightForeArm
				{
					OFFSET -5.241900 -0.000000 -0.000000 
					CHANNELS 3 Zrotation Yrotation Xrotation
					JOINT RightHand
					{
						OFFSET -3.444170 -0.000000 -0.000000 
						CHANNELS 3 Zrotation Yrotation Xrotation
						JOINT RightHandIndex1
						{
							OFFSET -0.622530 -0.000000 -0.000000 
							CHANNELS 3 Zrotation Yrotation Xrotation
							End Site
							{
								OFFSET 0.000000 0.000000 0.000000 
							}
						}
					}
				}
			}
		}
	}
}
MOTION
Frames: 10
Frame Time: 0.041667
0.663604 17.776601 -14.354960 -3.881603 -2.230549 9.339680 -13.535648 4.591095 -21.618628 0.050566 7.673718 20.929103 -0.964648 6.019134 -0.665967 0.179700 -2.730800 -7.530100 19.437775 3.664429 -19.778354 -0.848725 -8.902007 24.758641 -0.598541 1.174699 -4.843732 -0.023900 -0.998900 2.745900 1.496635 0.365142 -1.940136 0.727310 -0.083400 7.401150 2.766946 -0.214902 27.848455 0.412500 0.292200 11.233000 -93.890797 -5.132006 23.262041 6.968314 -16.397634 -1.093604 -0.210061 -0.742499 -2.134336 -7.125000 0.000000 0.000000 92.989015 9.183882 10.652061 -10.288883 22.209108 -2.440577 0.892000 0.970994 30.958346 7.125000 0.000000 0.000000 
0.663197 17.773035 -14.352209 -3.877335 -2.316624 9.255495 -13.533030 4.564144 -21.534184 0.066077 7.702375 21.014102 -0.997565 6.148656 -0.740457 0.178500 -2.721500 -7.504400 19.440387 3.763104 -19.741645 -0.894979 -8.993200 25.030535 -0.604272 1.214263 -4.840116 -0.017000 -0.841800 2.313500 1.494397 0.373682 -1.927188 0.721774 -0.081054 7.409093 2.691618 -0.153153 27.914484 0.382700 0.316900 11.279500 -93.773317 -5.095607 23.186796 6.898060 -16.278218 -1.072693 -0.211992 -0.741668 -1.992332 -7.125000 0.000000 0.000000 93.040550 9.193349 10.852601 -10.275435 22.188628 -2.433278 0.894053 0.968553 30.975030 7.125000 0.000000 0.000000 
0.661566 17.768756 -14.347522 -3.882513 -2.370704 9.168140 -13.508844 4.505251 -21.418265 0.078741 7.725284 21.079567 -1.037721 6.308129 -0.818522 0.183600 -2.760000 -7.611200 19.445970 3.848334 -19.586334 -0.893986 -8.987052 25.019779 -0.584153 1.115777 -4.790381 -0.011400 -0.690500 1.897600 1.494063 0.365810 -1.912975 0.712443 -0.084161 7.427526 2.682592 -0.093816 27.952200 0.397900 0.338400 11.279300 -93.669753 -5.058655 23.040269 6.808714 -16.119796 -1.042230 -0.232453 -0.735129 -1.736602 -7.125000 0.000000 0.000000 93.105838 9.231518 10.975064 -10.241617 22.137188 -2.418999 0.892929 0.966674 31.034996 7.125000 0.000000 0.000000 
0.656778 17.766005 -14.339269 -3.861433 -2.369367 9.095207 -13.508566 4.486047 -21.334750 0.090187 7.747233 21.145507 -1.052719 6.366846 -0.896461 0.188400 -2.795200 -7.709000 19.421952 3.958161 -19.476061 -0.888094 -8.974075 24.983393 -0.560913 0.999243 -4.736224 -0.015400 -0.801700 2.203200 1.496318 0.333975 -1.902702 0.718502 -0.101887 7.461701 2.651723 -0.032571 28.044600 0.399500 0.361900 11.317000 -93.603282 -5.022693 22.747342 6.753046 -16.025740 -1.026580 -0.235768 -0.733897 -1.535058 -7.125000 0.000000 0.000000 93.134408 9.217939 11.200903 -10.224137 22.116113 -2.411842 0.892101 0.964311 31.088446 7.125000 0.000000 0.000000 
0.652294 17.762948 -14.331321 -3.851175 -2.372353 9.020367 -13.493632 4.456418 -21.241155 0.100913 7.767823 21.205407 -1.070834 6.437965 -0.967290 0.192800 -2.827600 -7.799200 19.417345 4.025876 -19.297019 -0.862454 -8.918476 24.827405 -0.532200 0.864308 -4.616370 -0.016500 -0.830400 2.282300 1.498366 0.304989 -1.892018 0.716359 -0.116833 7.495276 2.623752 0.025117 28.137717 0.402400 0.383800 11.353000 -93.522256 -4.995519 22.462713 6.658555 -15.857893 -0.996960 -0.251356 -0.727632 -1.248064 -7.125000 0.000000 0.000000 93.179903 9.216534 11.378079 -10.200091 22.083524 -2.401751 0.891860 0.961651 31.156725 7.125000 0.000000 0.000000 
0.646690 17.760299 -14.321744 -3.836013 -2.348990 8.952419 -13.477128 4.423769 -21.148403 0.109891 7.786027 21.257797 -1.082544 6.484348 -1.035337 0.197500 -2.861400 -7.893200 19.411154 4.071738 -19.074801 -0.818027 -8.822632 24.555627 -0.496313 0.691814 -4.473622 -0.018800 -0.886000 2.435300 1.501027 0.265617 -1.883269 0.713305 -0.136652 7.536430 2.603618 0.078863 28.252282 0.409900 0.404300 11.397400 -93.447557 -4.974201 22.120213 6.545679 -15.654408 -0.961114 -0.272364 -0.718744 -0.893456 -7.125000 0.000000 0.000000 93.225539 9.202875 11.545246 -10.176641 22.053395 -2.392258 0.891295 0.959067 31.233108 7.125000 0.000000 0.000000 
0.639660 17.757650 -14.310638 -3.816209 -2.301649 8.890659 -13.459426 4.384714 -21.059188 0.118568 7.805078 21.312121 -1.088522 6.508355 -1.105459 0.201900 -2.893300 -7.981900 19.405279 4.100085 -18.824221 -0.766103 -8.708112 24.232172 -0.459254 0.506616 -4.368566 -0.021400 -0.943400 2.593200 1.504036 0.217365 -1.876676 0.709507 -0.160779 7.583984 2.589226 0.127306 28.389082 0.419800 0.423100 11.452800 -93.376783 -4.955881 21.745938 6.422021 -15.429634 -0.921531 -0.295352 -0.708636 -0.491318 -7.125000 0.000000 0.000000 93.273648 9.176129 11.695361 -10.154572 22.026268 -2.383472 0.890594 0.956974 31.315886 7.125000 0.000000 0.000000 
0.631611 17.755103 -14.298207 -3.792348 -2.232617 8.837128 -13.439298 4.334345 -20.972431 0.126483 7.823752 21.364135 -1.090959 6.518246 -1.173550 0.206500 -2.925700 -8.071900 19.401202 4.108468 -18.529283 -0.704769 -8.569529 23.843169 -0.421440 0.309682 -4.317863 -0.022500 -0.967800 2.660200 1.506963 0.162591 -1.873039 0.703466 -0.187536 7.633652 2.583174 0.169336 28.545051 0.433400 0.439800 11.517000 -93.309051 -4.935596 21.365366 6.298958 -15.204992 -0.882308 -0.317305 -0.698655 -0.074443 -7.125000 0.000000 0.000000 93.326860 9.134254 11.817436 -10.134416 22.002952 -2.375693 0.889363 0.955590 31.398557 7.125000 0.000000 0.000000 
0.622543 17.752352 -14.284860 -3.759405 -2.146946 8.792730 -13.423610 4.272145 -20.888443 0.132973 7.841155 21.411009 -1.091078 6.519140 -1.238662 0.210800 -2.955800 -8.155600 19.395738 4.093770 -18.202104 -0.639123 -8.416369 23.416306 -0.384404 0.105515 -4.348027 -0.020700 -0.929900 2.555900 1.509234 0.103339 -1.872802 0.697192 -0.216345 7.681423 2.586304 0.204600 28.714754 0.451500 0.453900 11.587000 -93.245666 -4.912419 21.000065 6.188584 -15.004086 -0.847818 -0.334052 -0.690960 0.314206 -7.125000 0.000000 0.000000 93.381800 9.073115 11.917757 -10.119107 21.987875 -2.370022 0.887381 0.955266 31.467925 7.125000 0.000000 0.000000 
0.612660 17.749907 -14.270697 -3.722711 -2.048548 8.755617 -13.408086 4.200894 -20.803584 0.137309 7.854715 21.446054 -1.089844 6.515422 -1.294629 0.215400 -2.987600 -8.244200 19.397432 4.050179 -17.856188 -0.573338 -8.257489 22.977265 -0.349574 -0.096833 -4.457447 -0.016900 -0.838600 2.305000 1.511036 0.042687 -1.875563 0.688980 -0.245436 7.724821 2.596634 0.233882 28.893648 0.472800 0.465600 11.661200 -93.188245 -4.889861 20.651792 6.090428 -14.825644 -0.817827 -0.345992 -0.685596 0.682764 -7.125000 0.000000 0.000000 93.435621 8.990984 12.006003 -10.111374 21.985283 -2.367675 0.884543 0.956142 31.507172 7.125000 0.000000 0.000000 
